<svg width="788" height="731" viewBox="0 0 788 731" fill="none" xmlns="http://www.w3.org/2000/svg">
<path opacity="0.75" d="M658.976 470.265C680.407 411.894 688.81 348.934 679.986 287.226C664.858 181.322 608.129 99.6008 501.397 42.0623C365.668 -32.1541 181.615 -5.88642 71.5191 102.936C10.5885 163.394 -26.3901 263.461 22.7746 333.924C58.4926 384.791 126.987 403.555 167.328 450.67C217.753 509.875 213.971 601.186 263.977 660.393C308.518 712.928 388.359 727.521 453.912 705.84C508.961 687.911 608.129 608.275 658.976 470.265Z" fill="#5493F7"/>
<path opacity="0.8" d="M453.837 706.25C508.885 688.32 608.056 608.685 658.9 470.674C680.331 412.302 692.097 356.015 679.91 287.636C639.15 62.068 360.551 352.263 312.227 381.865C217.258 439.821 191.205 567.406 258.86 655.381C260.541 657.467 261.801 659.551 263.482 661.219C308.023 713.337 388.283 727.512 453.837 706.25Z" fill="#2043B5"/>
<path opacity="0.7" d="M540.396 77.1468C481.565 55.8828 418.113 47.5438 355.922 56.2996C249.188 71.3098 166.827 127.597 108.838 233.502C34.04 368.175 60.5134 550.797 170.189 660.037C231.119 720.494 331.971 757.185 402.986 708.403C454.251 672.963 473.162 604.999 520.646 564.972C580.315 514.941 672.342 518.693 732.011 469.075C784.959 424.88 799.666 345.661 777.814 280.617C759.745 225.996 679.485 127.597 540.396 77.1468Z" fill="#2566E4"/>
<path d="M418.543 522.879L364.334 414.472L328.196 447.412L311.809 522.879H250.038L309.288 245.192H371.479L348.367 353.182L467.706 245.192H553.851L413.079 371.11L492.92 522.879H418.543Z" fill="white"/>
</svg>
